<svg width="44" height="44" viewBox="0 0 44 44" fill="none" xmlns="http://www.w3.org/2000/svg">
<path d="M21.0048 42.2348C18.7621 42.2348 16.5595 42.2348 14.4061 42.2322C14.1007 42.2322 13.3876 42.2322 12.9321 41.646C12.4766 41.0598 12.6526 40.3648 12.7276 40.0685C12.8622 39.5353 13.0007 39.0047 13.1392 38.4728C13.3721 37.5747 13.6141 36.6468 13.8328 35.7358C14.0774 34.7199 14.8267 34.1582 15.8775 34.1906C16.3305 34.2048 16.7925 34.2048 17.2765 34.2022C17.2803 33.8062 17.2778 33.4245 17.2558 33.0505C17.1923 31.9854 17.5922 31.1041 18.4101 30.5011C18.8967 30.1439 19.0507 29.7828 18.9808 29.172C18.9355 28.7747 18.9446 28.3891 18.9523 28.0487C18.9549 27.9387 18.9575 27.8313 18.9588 27.7278C17.5314 27.1778 16.2049 26.2874 14.916 25.0179C14.7646 24.8691 14.5368 24.7293 14.3065 24.6439C7.31953 22.0556 3.14988 16.9956 1.914 9.60623C1.82211 9.05235 1.80917 8.50882 1.79752 8.0287C1.77941 7.23929 2.02788 6.55729 2.51447 6.05776C3.00364 5.55564 3.68305 5.28776 4.47894 5.28517C5.66047 5.27999 6.86141 5.28258 8.02223 5.28517C8.40658 5.28647 8.79094 5.28647 9.174 5.28776C9.5027 3.84999 10.9353 3.35047 11.7105 3.07999C14.0658 2.25823 16.4715 2.01752 18.5162 1.8907C23.1569 1.60211 26.9539 1.81564 30.4674 2.56494C31.1158 2.70341 31.7952 2.90399 32.5458 3.17835C33.902 3.67529 34.4908 4.18129 34.7484 5.28517C35.4873 5.28647 36.2262 5.28646 36.9652 5.28646C37.7831 5.28646 38.6022 5.28647 39.4201 5.28776C40.5395 5.28905 41.184 5.72517 41.5282 6.08882C41.8647 6.4447 42.2529 7.09046 42.1934 8.14776C41.8867 13.6698 39.4758 18.2613 35.0266 21.7968C33.5241 22.9913 31.7473 23.9347 29.5939 24.6814C29.4269 24.7396 29.2419 24.8561 29.1112 24.9855C27.7692 26.3236 26.4647 27.1998 25.0425 27.7135C25.0567 28.3321 25.0632 28.9986 25.0256 29.6651C25.0088 29.964 25.0852 30.0196 25.1356 30.0572C26.3909 30.9695 26.9319 32.2248 26.7429 33.7894C26.7274 33.9201 26.7209 34.0586 26.7196 34.2061C27.1816 34.21 27.6242 34.2087 28.0604 34.1906C29.1759 34.144 29.9342 34.7173 30.1905 35.8069C30.3975 36.6869 30.6305 37.5838 30.8556 38.4508C30.9967 38.9943 31.1378 39.5366 31.2736 40.0814C31.3474 40.3778 31.5208 41.0701 31.0692 41.6512C30.6162 42.2322 29.8928 42.2335 29.5848 42.2335C26.6834 42.2335 23.8143 42.2348 21.0048 42.2348ZM15.1748 39.9041C19.558 39.9067 24.1444 39.9067 28.8291 39.9028C28.7553 39.6142 28.6802 39.3243 28.6052 39.0358C28.3916 38.2153 28.1729 37.3689 27.9711 36.5239C27.4379 36.5407 26.9151 36.5368 26.3651 36.5316C26.1088 36.5291 25.8474 36.5265 25.5795 36.5265H24.4148V35.3618C24.4148 35.1741 24.4096 34.9942 24.4045 34.8182C24.3928 34.3976 24.3799 33.9615 24.4342 33.5086C24.5209 32.7891 24.3359 32.3491 23.7716 31.9388C23.2436 31.5558 22.6315 30.8272 22.7053 29.5305C22.7467 28.7967 22.726 28.0138 22.7079 27.3253C22.6859 26.4893 23.1285 25.872 23.9243 25.6313C25.1434 25.2625 26.2706 24.5326 27.4715 23.3355C27.8507 22.9576 28.3347 22.6535 28.8355 22.4788C30.7366 21.8188 32.2895 20.9996 33.5823 19.9708C37.5424 16.8235 39.6 12.9127 39.8718 8.01576C39.8834 7.80482 39.8485 7.70129 39.8355 7.68188C39.8174 7.66764 39.6906 7.61329 39.4188 7.61329C38.6022 7.61199 37.7856 7.61199 36.9678 7.61199C36.0916 7.61199 35.2155 7.61199 34.3394 7.6107C34.1505 7.6107 33.9758 7.59517 33.8231 7.58223C33.7674 7.57705 33.7131 7.57317 33.6587 7.56929L32.6519 7.50199L32.5742 6.49517C32.5315 5.93999 32.4862 5.74458 32.4552 5.67988C32.4099 5.63976 32.2572 5.54788 31.7486 5.36152C31.1015 5.1247 30.5243 4.95388 29.9847 4.8387C26.6834 4.1347 23.0858 3.93541 18.6638 4.21105C16.7782 4.32882 14.5692 4.54623 12.4805 5.27482C11.3611 5.66564 11.3766 5.73941 11.4723 6.21823L11.7532 7.61329H9.504C9.00835 7.61329 8.5127 7.61199 8.01835 7.6107C6.86141 7.60811 5.66435 7.60552 4.48929 7.6107C4.29905 7.61199 4.20588 7.65599 4.18388 7.67929C4.16188 7.70129 4.12305 7.79058 4.12694 7.97305C4.136 8.39494 4.14635 8.83105 4.21105 9.22058C5.31494 15.8193 8.88153 20.1494 15.1153 22.4581C15.6549 22.6587 16.1648 22.9771 16.5505 23.3562C17.7281 24.5158 18.8682 25.2521 20.1365 25.674C20.8211 25.9018 21.2326 26.6213 21.274 27.1842C21.2973 27.5078 21.2895 27.8106 21.2831 28.1031C21.2766 28.3929 21.2688 28.6673 21.296 28.9041C21.4616 30.3496 20.9556 31.5169 19.7909 32.3736C19.6641 32.4668 19.5606 32.5716 19.5813 32.9094C19.6162 33.4918 19.6085 34.0715 19.6007 34.6319C19.5981 34.8713 19.5942 35.1133 19.5942 35.3579V36.5226H18.4295C18.1461 36.5226 17.8731 36.5239 17.6078 36.5265C17.0681 36.5303 16.5543 36.5329 16.0393 36.5213C15.8322 37.3728 15.6096 38.2269 15.3948 39.0552C15.3211 39.3399 15.2473 39.622 15.1748 39.9041ZM29.4088 21.8098L30.7663 18.26C31.9246 15.2279 32.5095 12.4054 32.5548 9.62952L32.5729 8.48294H39.1587L38.8611 9.88835C37.9875 14.0166 35.8548 17.2946 32.5225 19.6279L29.4088 21.8098ZM34.8363 10.8123C34.7535 12.1091 34.5646 13.4148 34.2669 14.7439C35.1185 13.5856 35.7655 12.2799 36.2172 10.8123H34.8363ZM14.5925 21.7916L11.484 19.6279C8.17235 17.3231 6.04094 14.0606 5.148 9.92976L4.84258 8.51917H11.4219L11.4452 9.66058C11.5021 12.4468 12.0883 15.2576 13.2362 18.2561L14.5925 21.7916ZM7.79576 10.8486C8.25 12.3058 8.89447 13.6012 9.73694 14.7478C9.44317 13.4342 9.25423 12.1388 9.16752 10.8486H7.79576Z" fill="#27175D"/>
</svg>
