<?xml version="1.0" encoding="utf-8"?>
<!-- Generator: Adobe Illustrator 24.3.0, SVG Export Plug-In . SVG Version: 6.00 Build 0)  -->
<svg version="1.1" id="Capa_1" xmlns="http://www.w3.org/2000/svg" xmlns:xlink="http://www.w3.org/1999/xlink" x="0px" y="0px"
	 viewBox="0 0 250 113.7" style="enable-background:new 0 0 250 113.7;" xml:space="preserve">
<style type="text/css">
	.st0{fill:#F5BD33;}
</style>
<g transform="matrix(0.4166666666666667,0,0,0.4166666666666667,0,0)">
	<path class="st0" d="M0,215.9v50c40.7-0.8,73.4-34.1,73.4-75V91.7c0-23.6,15.2-34.8,25-34.8c9.8,0,25,11.2,25,34.8v89.4
		c0,42.4,29.5,84.8,75,84.8c45.4,0,75-42.4,75-84.8V91.7c0-23.6,15.2-34.8,25-34.8c9.8,0,25,11.2,25,34.8v89.4
		c0,42.4,29.5,84.8,75,84.8c45.4,0,75-42.4,75-84.8V91.7c0-23.6,15.2-34.8,25-34.8c9.8,0,25,11.2,25,34.8v89.4
		c0,42.4,29.5,84.8,75,84.8c0.7,0,1.3,0,2,0v-50.1c-0.7,0.1-1.3,0.1-2,0.1c-9.8,0-25-11.2-25-34.8V91.7c0-42.4-29.5-84.8-75-84.8
		c-45.4,0-75,42.4-75,84.8v89.4c0,23.6-15.2,34.8-25,34.8c-9.8,0-25-11.2-25-34.8V91.7c0-42.4-29.5-84.8-75-84.8
		c-45.4,0-75,42.4-75,84.8v89.4c0,23.6-15.2,34.8-25,34.8c-9.8,0-25-11.2-25-34.8V91.7c0-42.4-29.5-84.8-75-84.8
		c-45.4,0-75,42.4-75,84.8V191C23.4,204.2,13,215.1,0,215.9z"/>
</g>
</svg>
