<svg xmlns="http://www.w3.org/2000/svg" fill="none" viewBox="0 0 250 250"><g transform="matrix(0.8333333333333334,0,0,0.8333333333333334,0,0)"><path fill="#43A363" fill-rule="evenodd" d="M150 40C89.2487 40 40 89.2487 40 150C40 210.751 89.2487 260 150 260C210.751 260 260 210.751 260 150C260 89.2487 210.751 40 150 40ZM0 150C0 67.1573 67.1573 0 150 0C232.843 0 300 67.1573 300 150C300 232.843 232.843 300 150 300C67.1573 300 0 232.843 0 150Z" clip-rule="evenodd"></path><path fill="#43A363" fill-rule="evenodd" d="M150 110C127.909 110 110 127.909 110 150C110 172.091 127.909 190 150 190C172.091 190 190 172.091 190 150C190 127.909 172.091 110 150 110ZM70 150C70 105.817 105.817 70 150 70C194.183 70 230 105.817 230 150C230 194.183 194.183 230 150 230C105.817 230 70 194.183 70 150Z" clip-rule="evenodd"></path></g></svg>