<svg xmlns="http://www.w3.org/2000/svg" fill="none" viewBox="0 0 250 250"><g transform="matrix(0.8333333333333334,0,0,0.8333333333333334,0,0)"><path fill="#E55733" d="M108.303 39.3099C149.389 80.35 149.74 149.529 149.74 149.529C149.74 149.529 83.4779 152.168 42.3922 111.128C1.30654 70.0878 0.95532 0.909076 0.95532 0.909076C0.95532 0.909076 67.2172 -1.73033 108.303 39.3099Z"></path><path fill="#E55733" d="M191.177 39.3099C150.091 80.35 149.74 149.529 149.74 149.529C149.74 149.529 216.002 152.168 257.087 111.128C298.173 70.0878 298.524 0.909076 298.524 0.909076C298.524 0.909076 232.262 -1.73033 191.177 39.3099Z"></path><path fill="#E55733" d="M108.303 259.69C149.389 218.65 149.74 149.471 149.74 149.471C149.74 149.471 83.4779 146.832 42.3922 187.872C1.30654 228.912 0.95532 298.091 0.95532 298.091C0.95532 298.091 67.2172 300.73 108.303 259.69Z"></path><path fill="#E55733" d="M191.177 259.69C150.091 218.65 149.74 149.471 149.74 149.471C149.74 149.471 216.002 146.832 257.087 187.872C298.173 228.912 298.524 298.091 298.524 298.091C298.524 298.091 232.262 300.73 191.177 259.69Z"></path></g></svg>