<svg width="44" height="44" viewBox="0 0 44 44" fill="none" xmlns="http://www.w3.org/2000/svg">
<path d="M34.8333 14.6667L27.4999 22H32.9999C32.9999 28.0684 28.0683 33 21.9999 33C20.1483 33 18.3883 32.5417 16.8666 31.7167L14.1899 34.3934C16.4449 35.8234 19.1216 36.6667 21.9999 36.6667C30.1033 36.6667 36.6666 30.1034 36.6666 22H42.1666L34.8333 14.6667ZM10.9999 22C10.9999 15.9317 15.9316 11 21.9999 11C23.8516 11 25.6116 11.4584 27.1333 12.2834L29.8099 9.60671C27.5549 8.17671 24.8783 7.33337 21.9999 7.33337C13.8966 7.33337 7.33325 13.8967 7.33325 22H1.83325L9.16658 29.3334L16.4999 22H10.9999Z" fill="#F89740"/>
</svg>
