<svg xmlns="http://www.w3.org/2000/svg" fill="none" viewBox="0 0 250 250"><g transform="matrix(0.8333333333333334,0,0,0.8333333333333334,0,0)"><path fill="#F5BD33" d="M150 298.5C126.694 298.5 107.527 280.783 105.231 258.083C87.5555 272.511 61.4742 271.485 44.9946 255.005C28.5151 238.526 27.4892 212.445 41.9169 194.769C19.2168 192.473 1.5 173.306 1.5 150C1.5 126.694 19.2168 107.527 41.917 105.23C27.4892 87.5555 28.5151 61.4742 44.9947 44.9946C61.4743 28.5151 87.5555 27.4891 105.231 41.9169C107.527 19.2168 126.694 1.5 150 1.5C173.306 1.5 192.473 19.2168 194.769 41.9169C212.445 27.4891 238.526 28.515 255.005 44.9946C271.485 61.4742 272.511 87.5555 258.083 105.231C280.783 107.527 298.5 126.694 298.5 150C298.5 173.306 280.783 192.473 258.083 194.769C272.511 212.445 271.485 238.526 255.005 255.005C238.526 271.485 212.445 272.511 194.77 258.083C192.473 280.783 173.306 298.5 150 298.5Z"></path></g></svg>