<svg xmlns="http://www.w3.org/2000/svg" fill="none" viewBox="0 0 250 250"><g transform="matrix(0.4166666666666667,0,0,0.4166666666666667,0,0)"><path fill="#E55733" d="M60.4036 140.152C79.0377 134.11 99.0787 124.319 114.925 108.455C155.965 67.3695 153.326 1.10767 153.326 1.10767C153.326 1.10767 84.1468 1.45888 43.1066 42.5446C11.6839 74.0022 5.86752 120.219 4.8671 140.152H0V160.152H4.88269C5.92708 180.249 11.8429 226.157 43.1066 257.455C84.1468 298.541 153.326 298.892 153.326 298.892C153.326 298.892 155.965 232.63 114.925 191.545C99.3423 175.945 79.7034 166.218 61.3347 160.152H152.205C153.25 180.249 159.166 226.157 190.429 257.455C231.47 298.541 300.648 298.892 300.648 298.892C300.648 298.892 303.288 232.63 262.247 191.545C246.665 175.945 227.026 166.218 208.658 160.152H299.528C300.573 180.249 306.489 226.157 337.752 257.455C378.793 298.541 447.971 298.892 447.971 298.892C447.971 298.892 450.611 232.63 409.57 191.545C393.988 175.945 374.349 166.218 355.98 160.152H446.852C447.896 180.249 453.812 226.157 485.075 257.455C526.116 298.541 595.294 298.892 595.294 298.892C595.294 298.892 597.934 232.63 556.893 191.545C541.311 175.945 521.672 166.218 503.303 160.152H600V140.152H502.372C521.006 134.11 541.047 124.319 556.893 108.455C597.934 67.3695 595.294 1.10767 595.294 1.10767C595.294 1.10767 526.116 1.45888 485.075 42.5446C453.653 74.0022 447.836 120.219 446.836 140.152H355.049C373.683 134.11 393.724 124.319 409.57 108.455C450.611 67.3695 447.971 1.10767 447.971 1.10767C447.971 1.10767 378.793 1.45888 337.752 42.5446C306.33 74.0022 300.513 120.219 299.513 140.152H207.726C226.36 134.11 246.401 124.319 262.247 108.455C303.288 67.3695 300.648 1.10767 300.648 1.10767C300.648 1.10767 231.47 1.45888 190.429 42.5446C159.007 74.0022 153.19 120.219 152.19 140.152H60.4036Z"></path></g></svg>