<svg xmlns="http://www.w3.org/2000/svg" fill="none" viewBox="0 0 250 250"><g transform="matrix(0.4166666666666667,0,0,0.4166666666666667,0,0)"><path fill="#336BB7" fill-rule="evenodd" d="M300 95.4599C408.115 95.4599 495.759 183.104 495.759 291.219H445.759C445.759 210.718 380.5 145.46 300 145.46C219.499 145.46 154.241 210.718 154.241 291.219H104.241C104.241 183.104 191.885 95.4599 300 95.4599Z" clip-rule="evenodd"></path><path fill="#336BB7" fill-rule="evenodd" d="M300 6.71898C457.125 6.71899 584.5 134.094 584.5 291.219H534.5C534.5 161.708 429.511 56.719 300 56.719C170.489 56.719 65.5 161.708 65.5 291.219H15.5C15.5 134.094 142.875 6.71897 300 6.71898Z" clip-rule="evenodd"></path><path fill="#336BB7" fill-rule="evenodd" d="M300 180.167C361.332 180.167 411.052 229.887 411.052 291.219H361.052C361.052 257.501 333.718 230.167 300 230.167C266.282 230.167 238.948 257.501 238.948 291.219H188.948C188.948 229.887 238.668 180.167 300 180.167Z" clip-rule="evenodd"></path></g></svg>