<svg xmlns="http://www.w3.org/2000/svg" fill="none" viewBox="0 0 250 250"><g transform="matrix(0.8333333333333334,0,0,0.8333333333333334,0,0)"><path fill="#F4ADB3" fill-rule="evenodd" d="M79.0006 108.791C73.569 98.6555 70.5106 87.2062 70.5106 75.0861C70.5106 33.6172 106.314 0 150.48 0V67.6024C156.514 57.78 164.889 49.3531 175.392 43.2442C211.238 22.3944 258.299 36.4415 280.505 74.6193L221.741 108.799C233.297 109.098 244.818 112.138 255.389 118.196C291.369 138.815 302.734 186.594 280.774 224.914L221.96 191.209C227.392 201.345 230.45 212.794 230.45 224.914C230.45 266.383 194.647 300 150.48 300V232.398C144.447 242.22 136.072 250.647 125.569 256.756C89.7228 277.606 42.6622 263.559 20.4563 225.381L79.2196 191.201C67.6636 190.902 56.1431 187.862 45.5715 181.804C9.59187 161.185 -1.77328 113.406 20.1867 75.0862L79.0006 108.791ZM150.522 149.828C150.508 149.803 150.494 149.779 150.48 149.755L150.48 149.828C150.494 149.828 150.508 149.828 150.522 149.828ZM150.48 150.172V150.245L150.438 150.172L150.48 150.172Z" clip-rule="evenodd"></path></g></svg>