<svg xmlns="http://www.w3.org/2000/svg" fill="none" viewBox="0 0 250 250"><g transform="matrix(0.8333333333333334,0,0,0.8333333333333334,0,0)"><path fill="#E55733" d="M150.577 47.7119C115.566 47.7119 87.1839 77.489 87.1839 114.221V139.927H67.6621C30.9302 139.927 1.15311 168.308 1.15311 203.319C1.15311 238.33 30.9302 266.712 67.6621 266.712C67.6621 266.712 122.153 262.712 122.153 324.712C122.153 406.106 83.2797 464.602 140.5 471C147.039 471.731 150.81 471.725 157.35 471C214.75 464.637 179 406.106 179 324.712C179 262.712 233.491 266.712 233.491 266.712C270.223 266.712 300 238.33 300 203.319C300 168.308 270.223 139.927 233.491 139.927H213.969V114.221C213.969 77.489 185.587 47.7119 150.577 47.7119Z"></path></g></svg>