<svg xmlns="http://www.w3.org/2000/svg" fill="none" viewBox="0 0 250 250"><g transform="matrix(0.4166666666666667,0,0,0.4166666666666667,0,0)"><path fill="#F5BD33" d="M0 229.456V279.49C40.6683 278.642 73.375 245.409 73.375 204.538V105.32C73.375 81.6817 88.5803 70.4937 98.3438 70.4937C108.107 70.4937 123.312 81.6817 123.312 105.32V194.68C123.312 237.124 152.851 279.506 198.281 279.506C243.712 279.506 273.25 237.124 273.25 194.68V105.32C273.25 81.6817 288.455 70.4937 298.219 70.4937C307.982 70.4937 323.188 81.6817 323.188 105.32V194.68C323.188 237.124 352.726 279.506 398.156 279.506C443.587 279.506 473.125 237.124 473.125 194.68V105.32C473.125 81.6817 488.33 70.4937 498.094 70.4937C507.857 70.4937 523.062 81.6817 523.062 105.32V194.68C523.062 237.124 552.601 279.506 598.031 279.506C598.691 279.506 599.347 279.497 600 279.48V229.364C599.325 229.459 598.666 229.506 598.031 229.506C588.268 229.506 573.062 218.318 573.062 194.68V105.32C573.062 62.8757 543.524 20.4937 498.094 20.4937C452.663 20.4937 423.125 62.8757 423.125 105.32V194.68C423.125 218.318 407.92 229.506 398.156 229.506C388.393 229.506 373.188 218.318 373.188 194.68V105.32C373.188 62.8757 343.649 20.4937 298.219 20.4937C252.788 20.4937 223.25 62.8757 223.25 105.32V194.68C223.25 218.318 208.045 229.506 198.281 229.506C188.518 229.506 173.312 218.318 173.312 194.68V105.32C173.312 62.8757 143.774 20.4937 98.3438 20.4937C52.9132 20.4937 23.375 62.8757 23.375 105.32V204.538C23.375 217.792 13.0472 228.634 0 229.456Z"></path></g></svg>