<svg xmlns="http://www.w3.org/2000/svg" fill="none" viewBox="0 0 250 250"><g transform="matrix(0.8333333333333334,0,0,0.8333333333333334,0,0)"><path fill="#43A363" d="M17.4593 38.6073C12.433 35.9943 9 30.7397 9 24.6833C9 16.0216 16.0216 9 24.6833 9C30.7397 9 35.9943 12.433 38.6073 17.4593C41.2203 12.433 46.475 9 52.5314 9C58.5879 9 63.8425 12.433 66.4555 17.4592C69.0685 12.433 74.3231 9 80.3796 9C86.436 9 91.6907 12.433 94.3037 17.4593C96.9167 12.433 102.171 9 108.228 9C114.284 9 119.539 12.433 122.152 17.4593C124.765 12.433 130.019 9 136.076 9C142.132 9 147.387 12.433 150 17.4593C152.613 12.433 157.868 9 163.924 9C169.981 9 175.235 12.433 177.848 17.4593C180.461 12.433 185.716 9 191.772 9C197.829 9 203.083 12.433 205.696 17.4593C208.309 12.433 213.564 9 219.62 9C225.677 9 230.932 12.433 233.544 17.4593C236.157 12.433 241.412 9 247.469 9C253.525 9 258.78 12.433 261.393 17.4593C264.006 12.433 269.26 9 275.317 9C283.978 9 291 16.0216 291 24.6833C291 30.7397 287.567 35.9943 282.541 38.6073C287.567 41.2203 291 46.475 291 52.5314C291 58.5879 287.567 63.8425 282.541 66.4555C287.567 69.0685 291 74.3231 291 80.3796C291 86.4361 287.567 91.6907 282.541 94.3037C287.567 96.9167 291 102.171 291 108.228C291 114.284 287.567 119.539 282.541 122.152C287.567 124.765 291 130.019 291 136.076C291 142.132 287.567 147.387 282.541 150C287.567 152.613 291 157.868 291 163.924C291 169.981 287.567 175.235 282.541 177.848C287.567 180.461 291 185.716 291 191.772C291 197.829 287.567 203.083 282.541 205.696C287.567 208.309 291 213.564 291 219.62C291 225.677 287.567 230.932 282.541 233.544C287.567 236.158 291 241.412 291 247.469C291 253.525 287.567 258.78 282.541 261.393C287.567 264.006 291 269.26 291 275.317C291 283.978 283.978 291 275.317 291C269.26 291 264.006 287.567 261.393 282.541C258.78 287.567 253.525 291 247.469 291C241.412 291 236.157 287.567 233.544 282.541C230.932 287.567 225.677 291 219.62 291C213.564 291 208.309 287.567 205.696 282.541C203.083 287.567 197.829 291 191.772 291C185.716 291 180.461 287.567 177.848 282.541C175.235 287.567 169.981 291 163.924 291C157.868 291 152.613 287.567 150 282.541C147.387 287.567 142.132 291 136.076 291C130.019 291 124.765 287.567 122.152 282.541C119.539 287.567 114.284 291 108.228 291C102.171 291 96.9167 287.567 94.3037 282.541C91.6907 287.567 86.436 291 80.3796 291C74.3231 291 69.0685 287.567 66.4555 282.541C63.8425 287.567 58.5879 291 52.5314 291C46.475 291 41.2203 287.567 38.6073 282.541C35.9943 287.567 30.7397 291 24.6833 291C16.0216 291 9 283.978 9 275.317C9 269.26 12.433 264.006 17.4593 261.393C12.433 258.78 9 253.525 9 247.469C9 241.412 12.433 236.158 17.4593 233.544C12.433 230.932 9 225.677 9 219.62C9 213.564 12.433 208.309 17.4593 205.696C12.433 203.083 9 197.829 9 191.772C9 185.716 12.433 180.461 17.4593 177.848C12.433 175.235 9 169.981 9 163.924C9 157.868 12.433 152.613 17.4593 150C12.433 147.387 9 142.132 9 136.076C9 130.019 12.433 124.765 17.4592 122.152C12.433 119.539 9 114.284 9 108.228C9 102.171 12.433 96.9167 17.4593 94.3037C12.433 91.6907 9 86.436 9 80.3796C9 74.3231 12.433 69.0685 17.4593 66.4555C12.433 63.8425 9 58.5879 9 52.5314C9 46.475 12.433 41.2203 17.4593 38.6073Z"></path></g></svg>