<svg xmlns="http://www.w3.org/2000/svg" fill="none" viewBox="0 0 250 250"><g transform="matrix(0.4166666666666667,0,0,0.4166666666666667,0,0)"><path fill="#43A363" d="M300 124.5C291.504 124.5 284.022 119.024 281.101 111.046C264.832 66.6013 231.297 0 176.417 0V4.6521L176.088 8.20068C175.783 11.4897 171.977 13.4253 168.841 11.8865L161.966 8.51294C158.556 6.83984 154.491 9.27319 154.708 12.8574L155.147 20.0833C155.347 23.3792 151.876 25.7996 148.537 24.6921L141.217 22.2642C137.585 21.0601 133.933 24.0076 134.696 27.5264L136.234 34.6206C136.937 37.8564 133.87 40.7124 130.396 40.0588L122.779 38.6257C119.001 37.915 115.836 41.3169 117.13 44.6987L119.736 51.5166C120.925 54.6267 118.326 57.8599 114.788 57.6736L107.03 57.2649C103.181 57.062 100.569 60.8486 102.365 64.0247L105.987 70.4277C107.639 73.3484 105.561 76.8933 102.03 77.1777L94.2881 77.8018C90.4483 78.1111 88.4408 82.2053 90.7046 85.1108L95.2678 90.9688C97.3494 93.6409 95.8343 97.425 92.3823 98.1748L84.8147 99.8184C81.061 100.634 79.6999 104.952 82.3843 107.528L87.7961 112.722C90.265 115.091 89.3434 119.037 86.0408 120.237L78.8018 122.867C75.2108 124.171 74.523 128.626 77.574 130.82L83.7247 135.243C86.5298 137.261 86.2206 141.29 83.1352 142.915L76.3714 146.477C73.0165 148.245 73.0165 152.746 76.3714 154.513L83.1352 158.076C86.2206 159.701 86.5298 163.729 83.7247 165.747L77.574 170.17C74.523 172.364 75.2108 176.819 78.8018 178.124L86.0408 180.754C89.3434 181.953 90.265 185.9 87.7961 188.269L82.3843 193.462C79.6999 196.038 81.061 200.357 84.8147 201.172L92.3823 202.815C95.8343 203.565 97.3494 207.349 95.2678 210.021L90.7046 215.879C88.4408 218.785 90.4483 222.879 94.2881 223.188L102.03 223.812C105.561 224.097 107.639 227.642 105.987 230.562L102.365 236.966C100.569 240.142 103.181 243.928 107.03 243.725L114.788 243.317C118.326 243.13 120.925 246.364 119.736 249.474L117.13 256.292C115.836 259.673 119.001 263.075 122.779 262.364L130.396 260.931C133.87 260.278 136.937 263.134 136.234 266.37L134.696 273.464C133.933 276.983 137.585 279.93 141.217 278.726L148.537 276.298C151.876 275.191 155.347 277.611 155.147 280.907L154.708 288.133C154.491 291.717 158.556 294.15 161.966 292.477L168.841 289.104C171.977 287.565 175.783 289.5 176.088 292.79L176.417 296.338V300L176.758 299.999C231.435 299.724 264.866 233.306 281.101 188.954C284.022 180.975 291.504 175.5 300 175.5V175.5C308.496 175.5 315.978 180.975 318.899 188.954C335.134 233.306 368.565 299.724 423.242 299.999L423.583 300V296.338L423.912 292.79C424.217 289.5 428.023 287.565 431.159 289.104L438.034 292.477C441.444 294.151 445.509 291.717 445.292 288.133L444.853 280.907C444.653 277.611 448.124 275.191 451.463 276.298L458.783 278.726C462.415 279.93 466.067 276.983 465.304 273.464L463.766 266.37C463.063 263.134 466.13 260.278 469.604 260.931L477.221 262.365C480.999 263.075 484.164 259.673 482.87 256.292L480.264 249.474C479.075 246.364 481.674 243.13 485.212 243.317L492.97 243.725C496.819 243.928 499.431 240.142 497.635 236.966L494.012 230.562C492.361 227.642 494.439 224.097 497.97 223.812L505.712 223.189C509.552 222.879 511.559 218.785 509.295 215.879L504.732 210.021C502.651 207.349 504.166 203.565 507.618 202.815L515.185 201.172C518.939 200.357 520.3 196.038 517.616 193.462L512.204 188.269C509.735 185.9 510.657 181.953 513.959 180.754L521.198 178.124C524.789 176.819 525.477 172.364 522.426 170.17L516.275 165.747C513.47 163.729 513.779 159.701 516.865 158.076L523.629 154.513C526.983 152.746 526.983 148.245 523.629 146.477L516.865 142.915C513.779 141.29 513.47 137.261 516.275 135.243L522.426 130.82C525.477 128.626 524.789 124.171 521.198 122.867L513.959 120.237C510.657 119.037 509.735 115.091 512.204 112.722L517.616 107.528C520.3 104.952 518.939 100.634 515.185 99.8184L507.618 98.1748C504.166 97.425 502.651 93.6409 504.732 90.9688L509.295 85.1111C511.559 82.2053 509.552 78.1111 505.712 77.8018L497.97 77.178C494.439 76.8933 492.361 73.3484 494.012 70.4277L497.635 64.0247C499.431 60.8486 496.819 57.062 492.97 57.2649L485.212 57.6736C481.674 57.8599 479.075 54.6267 480.264 51.5166L482.87 44.6987C484.164 41.3169 480.999 37.915 477.221 38.626L469.604 40.0588C466.13 40.7124 463.063 37.8564 463.766 34.6206L465.304 27.5264C466.067 24.0076 462.415 21.0601 458.783 22.2642L451.463 24.6921C448.124 25.7996 444.653 23.3792 444.853 20.0833L445.292 12.8574C445.509 9.27319 441.444 6.83984 438.034 8.51294L431.159 11.8865C428.023 13.4253 424.217 11.4897 423.912 8.20068L423.583 4.6521V0C368.703 0 335.168 66.6013 318.899 111.046C315.978 119.024 308.496 124.5 300 124.5V124.5Z"></path></g></svg>