<svg xmlns="http://www.w3.org/2000/svg" fill="none" viewBox="0 0 250 250"><g transform="matrix(0.8333333333333334,0,0,0.8333333333333334,0,0)"><circle cx="150" cy="35" r="35" fill="#E55733"></circle><circle cx="231.317" cy="231.317" r="13" fill="#E55733" transform="rotate(135 231.317 231.317)"></circle><circle cx="150" cy="265" r="35" fill="#E55733"></circle><circle cx="265" cy="150" r="35" fill="#E55733" transform="rotate(90 265 150)"></circle><circle cx="35" cy="150" r="35" fill="#E55733" transform="rotate(90 35 150)"></circle><circle cx="68.683" cy="68.683" r="13" fill="#E55733" transform="rotate(135 68.683 68.683)"></circle><circle r="13" fill="#E55733" transform="scale(1 -1) rotate(-45 -244.883 -198.566)"></circle><circle r="13" fill="#E55733" transform="scale(1 -1) rotate(-45 32.751 -313.566)"></circle><path fill="#E55733" fill-rule="evenodd" d="M213.009 30.041C217.898 32.6092 219.78 38.6547 217.212 43.5441L207.446 62.1356C204.878 67.025 198.833 68.9067 193.943 66.3385C189.054 63.7704 187.172 57.7248 189.74 52.8354L199.506 34.244C202.074 29.3545 208.119 27.4728 213.009 30.041Z" clip-rule="evenodd"></path><path fill="#E55733" fill-rule="evenodd" d="M106.057 233.661C110.946 236.23 112.828 242.275 110.26 247.165L100.494 265.756C97.9263 270.645 91.8807 272.527 86.9913 269.959C82.1019 267.391 80.2202 261.345 82.7883 256.456L92.5535 237.864C95.1217 232.975 101.167 231.093 106.057 233.661Z" clip-rule="evenodd"></path><path fill="#E55733" fill-rule="evenodd" d="M86.9913 30.041C82.1019 32.6092 80.2202 38.6547 82.7883 43.5441L92.5535 62.1356C95.1217 67.025 101.167 68.9067 106.057 66.3385C110.946 63.7704 112.828 57.7248 110.26 52.8354L100.494 34.244C97.9263 29.3545 91.8807 27.4728 86.9913 30.041Z" clip-rule="evenodd"></path><path fill="#E55733" fill-rule="evenodd" d="M193.943 233.661C189.054 236.23 187.172 242.275 189.74 247.165L199.506 265.756C202.074 270.645 208.119 272.527 213.009 269.959C217.898 267.391 219.78 261.345 217.212 256.456L207.446 237.864C204.878 232.975 198.833 231.093 193.943 233.661Z" clip-rule="evenodd"></path><path fill="#E55733" fill-rule="evenodd" d="M66.0275 106.654C63.4942 111.562 57.4622 113.486 52.5546 110.953L33.894 101.321C28.9865 98.7876 27.0617 92.7556 29.5949 87.848C32.1282 82.9404 38.1602 81.0156 43.0678 83.5489L61.7283 93.1813C66.6359 95.7145 68.5607 101.747 66.0275 106.654Z" clip-rule="evenodd"></path><path fill="#E55733" fill-rule="evenodd" d="M269.507 86.1379C266.904 81.2669 260.845 79.4283 255.974 82.0313L237.453 91.9287C232.582 94.5317 230.743 100.59 233.346 105.461C235.949 110.332 242.008 112.171 246.879 109.568L265.4 99.6706C270.271 97.0677 272.11 91.0089 269.507 86.1379Z" clip-rule="evenodd"></path><path fill="#E55733" fill-rule="evenodd" d="M66.0275 193.346C63.4942 188.438 57.4622 186.513 52.5546 189.047L33.894 198.679C28.9865 201.212 27.0617 207.244 29.5949 212.152C32.1282 217.059 38.1602 218.984 43.0678 216.451L61.7283 206.819C66.6359 204.285 68.5607 198.253 66.0275 193.346Z" clip-rule="evenodd"></path><path fill="#E55733" fill-rule="evenodd" d="M269.507 213.862C266.904 218.733 260.845 220.572 255.974 217.969L237.453 208.071C232.582 205.468 230.743 199.409 233.346 194.538C235.949 189.667 242.008 187.829 246.879 190.432L265.4 200.329C270.271 202.932 272.11 208.991 269.507 213.862Z" clip-rule="evenodd"></path></g></svg>