<svg xmlns="http://www.w3.org/2000/svg" xmlns:xlink="http://www.w3.org/1999/xlink" width="152" height="156" viewBox="0 0 152 156">
  <defs>
    <style>
      .cls-1 {
        clip-path: url(#clip-reset);
      }

      .cls-2 {
        fill: #fff;
      }
    </style>
    <clipPath id="clip-reset">
      <rect width="152" height="156"/>
    </clipPath>
  </defs>
  <g id="reset" class="cls-1">
    <path id="FontAwsome_sync-alt_" data-name="FontAwsome (sync-alt)" class="cls-2" d="M87.72,35.535A36.933,36.933,0,0,0,26.694,53.462a2.644,2.644,0,0,1-2.561,2.011H11.539a2.636,2.636,0,0,1-2.595-3.116A54.513,54.513,0,0,1,100.159,23.1l7.85-7.85a5.275,5.275,0,0,1,9,3.73V48.44a5.275,5.275,0,0,1-5.275,5.275H82.274a5.275,5.275,0,0,1-3.73-9ZM13.275,71.3H42.739a5.275,5.275,0,0,1,3.73,9l-9.176,9.176A36.933,36.933,0,0,0,98.319,71.551a2.644,2.644,0,0,1,2.561-2.011h12.595a2.636,2.636,0,0,1,2.6,3.116,54.513,54.513,0,0,1-91.215,29.261L17,109.767a5.275,5.275,0,0,1-9-3.73V76.573A5.275,5.275,0,0,1,13.275,71.3Z" transform="translate(149.19 28.474) rotate(101)"/>
  </g>
</svg>
